<svg width="714" height="229" viewBox="0 0 714 229" fill="none" xmlns="http://www.w3.org/2000/svg">
<mask id="mask0_1969_8852" style="mask-type:alpha" maskUnits="userSpaceOnUse" x="0" y="0" width="714" height="229">
<path d="M160.304 155.11C161.269 153.732 162.52 153 163.623 153.445C164.726 153.891 165.58 155.45 165.086 156.881C158.087 177.211 137.89 189.587 116.373 188.351C102.782 187.572 90.8837 194.926 85.5865 207.414C84.6957 209.514 82.8663 210.574 80.5757 209.62C57.0433 199.81 37.9544 181.744 27.2911 158.573C26.0185 155.81 25.2232 153.26 24.1892 150.497C23.5847 148.88 24.1414 146.865 25.4936 146.388C27.201 145.783 29.1205 146.244 29.9052 148.122C34.354 158.716 40.6905 168.101 49.5297 175.461C53.7133 178.939 58.0614 181.485 62.7965 184.062C67.2877 186.506 72.1872 188.076 77.1715 189.157C79.6053 189.688 80.7188 188.606 82.3732 186.946C89.5209 179.783 99.9933 175.562 110.572 176.755C130.011 178.955 148.834 171.474 160.288 155.11H160.304Z" fill="#F49725"/>
<path d="M140.419 204.609C153.681 199.142 164.922 190.716 172.833 178.929C177.961 171.288 181.736 163.297 183.82 154.368C184.361 152.04 183.571 151.006 181.969 149.58C174.567 142.994 170.463 133.158 171.248 123.057C172.356 108.83 169.959 94.3227 160.887 83.336L156.051 77.482C155.298 76.57 155.632 75.1277 156.125 74.4331C156.703 73.6165 158.103 73.309 159.121 73.9665C174.885 84.126 184.302 98.9093 182.786 118.216C181.72 131.79 188.433 143.853 200.862 149.293C202.029 149.802 202.972 150.693 203.248 151.531C203.683 152.846 203.116 153.912 202.644 155.174C192.516 182.089 170.649 202.801 142.927 210.548C141.008 211.083 139.475 210.776 138.643 209.105C137.975 207.764 138.309 205.484 140.419 204.609Z" fill="#FDFDFD"/>
<path d="M72.3726 164.018C73.4596 165.105 73.3854 166.526 73.0884 167.481C72.8551 168.234 71.503 169.517 70.3789 168.854C55.1873 159.978 44.6301 145.089 45.3777 126.694C45.8019 116.312 44.5081 106.306 40.0859 96.8837C37.6573 91.7138 25.2018 90.0913 23.8868 86.9204C23.3406 85.6001 23.8019 84.6509 24.2845 83.3996C33.76 58.7165 53.4216 39.7125 78.6667 31.6209C80.4271 31.0588 82.0867 32.3102 82.3466 33.7366C82.548 34.8501 82.1663 36.6848 80.6127 37.4695C59.9489 47.9048 44.6513 66.7233 41.0562 90.0542C40.2396 95.3566 46.8995 96.8148 51.5975 103.416C55.6539 109.117 57.006 115.904 56.7144 122.967C56.0728 138.476 61.3488 152.957 72.3726 164.008V164.018Z" fill="#FDFDFD"/>
<path d="M207.008 102.149C217.098 99.7946 226.722 106.189 228.944 115.654C231.235 125.416 225.111 135.258 215.545 137.527C205.778 139.839 196.117 134.149 193.608 124.478C191.138 114.938 196.769 104.546 207.008 102.154V102.149Z" fill="#FCFCFC"/>
<path d="M18.5528 136.329C10.6415 136.87 3.99223 131.933 1.37281 125.634C-1.6496 118.364 0.513809 110.426 5.94884 105.606C11.7444 100.468 20.2602 99.6305 26.83 103.888C33.3149 108.093 36.3426 115.692 34.3648 123.317C32.6203 130.035 26.5596 135.788 18.5475 136.334L18.5528 136.329Z" fill="#FDFDFD"/>
<path d="M111.309 228.639C104.156 227.94 99.0075 222.642 97.6395 215.903C96.6161 210.866 98.5727 205.77 102.078 202.36C105.583 198.951 110.572 197.429 115.832 198.277C123.945 199.592 129.433 207.483 128.362 215.309C127.238 223.491 120.127 229.498 111.309 228.634V228.639Z" fill="#F49824"/>
<path d="M124.083 63.7324C99.6914 59.1034 76.5196 66.7283 63.1998 87.3708C62.4892 88.4738 61.153 88.882 60.0554 88.4472C59.1752 88.1026 58.3586 86.5065 58.8623 85.0484C61.8264 76.4796 66.6039 68.2554 73.6721 62.3273C83.8264 53.8168 96.3508 49.8558 109.437 50.1952C116.76 50.3861 123.69 48.7529 129.937 45.3381C143.49 37.9306 139.635 27.8877 147.716 31.223C173.38 41.8226 193.19 63.1014 202.602 89.2426C203.243 91.0295 201.987 92.7263 200.841 93.1877C198.821 94.0042 197.511 92.8271 196.679 90.9659C191.424 79.1573 183.63 68.9129 172.998 61.6061C166.386 57.0619 159.556 53.5517 151.714 52.1253C149.704 51.7594 147.96 52.1677 146.539 53.5941C140.605 59.57 132.895 63.1916 124.077 63.7271L124.083 63.7324Z" fill="#F29725"/>
<path d="M123.509 34.8872C116.892 40.2215 108.355 40.7889 101.096 36.9446C94.4889 33.445 90.0189 25.6821 91.037 17.7337C92.2036 8.58167 98.8157 1.86343 107.178 0.325715C116.07 -1.30745 124.771 3.34282 128.541 11.095C132.486 19.2078 130.715 29.0916 123.515 34.8978L123.509 34.8872Z" fill="#F49824"/>
<path d="M581.613 189.833C556.813 186.44 524.442 185.278 499.223 185.894C467.758 186.662 436.702 189.452 405.772 195.353C404.669 195.565 403.742 194.94 403.519 194.271C403.323 193.683 403.715 192.813 404.68 192.485C434.872 182.171 468.601 179.101 500.612 179.011C528.037 178.931 555.074 181.323 581.693 187.537C582.419 187.707 582.78 188.2 582.891 188.508C583.071 189.011 582.594 189.966 581.613 189.828V189.833Z" fill="#EF972A"/>
<path d="M530.375 133.701C533.641 137.445 537.873 138.887 542.587 138.373C546.5 137.949 550.174 135.377 552.624 131.336L562.816 138.187C558.611 146.798 549.782 150.892 540.37 150.982C523.408 151.141 510.342 137.493 511.97 120.514C512.962 110.169 519.293 101.202 529.214 97.5702C540.323 93.5032 555.917 95.4386 562.466 106.478L552.661 114.432C549.665 109.999 545.18 107.613 540.158 107.793C535.137 107.974 530.799 110.614 528.392 115.254C525.338 121.134 525.868 128.542 530.375 133.701Z" fill="#FDFDFD"/>
<path d="M474.716 136.538L478.454 147.615C471.826 151.178 463.872 152.09 456.73 149.397C451.029 147.244 447.36 141.586 447.307 135.499L447.084 108.711L439.072 108.525L439.046 97.1621L447.037 96.9819L447.206 83.2802L461.539 83.2219L461.751 97.0402L476.19 97.1038L476.264 108.403L461.698 108.706L461.687 132.546C461.687 135.048 463.22 137.254 465.341 138.171C468.459 139.115 471.195 138.553 474.716 136.533V136.538Z" fill="#FDFDFD"/>
<path d="M416.706 149.863L402.374 149.89L402.353 96.8016L415.922 96.7804L416.425 105.063C419.999 98.4189 427.104 95.3169 434.735 95.6457L434.782 109.994C431.935 110.026 429.21 109.931 426.341 110.837C420.81 112.582 416.897 117.587 416.86 123.553L416.701 149.869L416.706 149.863Z" fill="#FDFDFD"/>
<path d="M586.105 149.874L571.592 150.038L571.602 96.7166L586.046 96.7007L586.105 149.874Z" fill="#F49724"/>
<path d="M586.862 78.455C588.315 81.4827 587.53 84.7172 585.764 86.9443C583.765 89.4629 580.923 90.5288 577.476 90.0887C573.022 89.516 569.883 86.1383 569.92 81.9016C569.963 77.4157 573.256 73.8843 577.98 73.6032C581.618 73.3858 585.154 74.8918 586.862 78.455Z" fill="#F39825"/>
<path d="M501.954 149.89L487.536 149.869L487.547 96.7856L502.038 96.7803L501.954 149.89Z" fill="#FCFCFC"/>
<path d="M493.915 90.0354C489.207 89.6537 485.999 85.995 485.951 81.859C485.898 77.4421 489.074 73.9796 493.571 73.5341C498.884 73.0092 503.083 76.2437 503.348 81.3659C503.608 86.3608 499.679 90.5021 493.915 90.0354Z" fill="#FDFDFD"/>
<path d="M389.186 115.636C389.159 107.099 384.562 99.7073 376.2 97.2735C364.911 93.986 352.334 95.6827 342.45 102.29C344.247 105.863 346.024 108.806 348.113 111.808C354.221 107.836 360.977 106.229 367.902 107.666C372.536 108.626 375.23 112.916 374.62 117.502C365.261 117.81 352.429 115.954 344.566 122.434C339.873 126.299 338.441 132.376 339.868 138.447C342.206 148.395 352.456 151.725 362.191 150.685C367.398 150.129 371.773 147.7 375.209 143.797L375.585 149.885L389.281 149.874L389.186 115.631V115.636ZM370.516 137.721C366.55 140.409 361.523 141.13 357.095 139.221C354.837 138.246 353.468 136.05 353.389 133.898C353.198 128.86 358.267 126.861 363.204 126.867L374.424 126.882C375.479 130.976 374.148 135.25 370.511 137.715L370.516 137.721Z" fill="#FDFDFD"/>
<path d="M654.649 111.622C650.486 100.916 640.311 94.7864 628.996 95.6295C622.834 96.0908 617.213 98.3815 613.65 103.451L613.274 96.7483L599.143 96.7801V169.721L613.804 169.684L613.979 143.612C618.703 148.888 624.679 151.056 631.403 150.934C641.668 150.749 650.524 144.948 654.474 135.356C657.327 127.683 657.618 119.263 654.649 111.616V111.622ZM639.012 133.341C635.809 137.959 630.576 139.269 625.141 138.33C620.777 137.577 616.556 134.131 614.822 129.173C613.263 124.703 613.465 119.745 615.527 115.524C617.998 110.461 622.739 107.618 628.354 107.703C633.619 107.783 638.057 110.418 640.29 115.323C642.824 120.88 642.729 127.969 639.012 133.335V133.341Z" fill="#FDFDFD"/>
<path d="M713.825 115.148C713.777 106.494 708.708 99.3465 700.383 97.1088C689.152 94.0917 677.147 95.7991 667.338 102.173L672.868 111.813C678.807 107.825 685.844 106.081 692.912 107.735C697.424 108.79 699.853 113.181 699.285 117.454C689.953 117.847 676.638 115.901 669.215 122.587C662.147 128.955 662.422 140.674 669.941 146.814C677.842 153.273 693.628 152.27 700.044 143.638L700.452 149.921L714 149.837L713.814 115.143L713.825 115.148ZM694.852 138.055C691.284 140.319 686.846 140.971 682.821 139.64C679.709 138.611 677.911 136.029 678.261 132.901C679.194 124.528 693.309 127.338 699.28 126.872C700.176 131.479 698.718 135.594 694.847 138.055H694.852Z" fill="#FDFDFD"/>
<path d="M325.959 85.0193C320.821 81.1273 314.734 78.9745 308.09 78.9586L275.156 78.8896V149.81L290.788 149.943L290.989 130.393L305.974 130.313C322.163 130.223 334.655 121.087 334.719 104.458C334.745 96.7855 332.02 89.8233 325.965 85.014L325.959 85.0193ZM307.984 117.041L291.069 117.227L290.958 92.1034L308.562 92.2253C314.994 92.2731 319.798 97.4854 319.405 104.177C319.872 111.415 314.893 116.967 307.984 117.041Z" fill="#FDFDFD"/>
</mask>
<g mask="url(#mask0_1969_8852)">
<rect x="-83" y="-127" width="1621" height="653" fill="black"/>
<path d="M160.304 155.11C161.269 153.732 162.52 153 163.623 153.445C164.726 153.891 165.58 155.45 165.086 156.881C158.087 177.211 137.89 189.587 116.373 188.351C102.782 187.572 90.8837 194.926 85.5865 207.414C84.6957 209.514 82.8663 210.574 80.5757 209.62C57.0433 199.81 37.9544 181.744 27.2911 158.573C26.0185 155.81 25.2232 153.26 24.1892 150.497C23.5847 148.88 24.1414 146.865 25.4936 146.388C27.201 145.783 29.1205 146.244 29.9052 148.122C34.354 158.716 40.6905 168.101 49.5297 175.461C53.7133 178.939 58.0614 181.485 62.7965 184.062C67.2877 186.506 72.1872 188.076 77.1715 189.157C79.6053 189.688 80.7188 188.606 82.3732 186.946C89.5209 179.783 99.9933 175.562 110.572 176.755C130.011 178.955 148.834 171.474 160.288 155.11H160.304Z" fill="#F49725"/>
<path d="M111.309 228.639C104.156 227.94 99.0075 222.642 97.6395 215.903C96.6161 210.866 98.5727 205.77 102.078 202.36C105.583 198.951 110.572 197.429 115.832 198.277C123.945 199.592 129.433 207.483 128.362 215.309C127.238 223.491 120.127 229.498 111.309 228.634V228.639Z" fill="#F49824"/>
<path d="M124.083 63.7324C99.6914 59.1034 76.5196 66.7283 63.1998 87.3708C62.4892 88.4738 61.153 88.882 60.0554 88.4472C59.1752 88.1026 58.3586 86.5065 58.8623 85.0484C61.8264 76.4796 66.6039 68.2554 73.6721 62.3273C83.8264 53.8168 96.3508 49.8558 109.437 50.1952C116.76 50.3861 123.69 48.7529 129.937 45.3381C143.49 37.9306 139.635 27.8877 147.716 31.223C173.38 41.8226 193.19 63.1014 202.602 89.2426C203.243 91.0295 201.987 92.7263 200.841 93.1877C198.821 94.0042 197.511 92.8271 196.679 90.9659C191.424 79.1573 183.63 68.9129 172.998 61.6061C166.386 57.0619 159.556 53.5517 151.714 52.1253C149.704 51.7594 147.96 52.1677 146.539 53.5941C140.605 59.57 132.895 63.1916 124.077 63.7271L124.083 63.7324Z" fill="#F29725"/>
<path d="M123.509 34.8872C116.892 40.2215 108.355 40.7889 101.096 36.9446C94.4889 33.445 90.0189 25.6821 91.037 17.7337C92.2036 8.58167 98.8157 1.86343 107.178 0.325715C116.07 -1.30745 124.771 3.34282 128.541 11.095C132.486 19.2078 130.715 29.0916 123.515 34.8978L123.509 34.8872Z" fill="#F49824"/>
<path d="M581.613 189.833C556.813 186.44 524.442 185.278 499.223 185.894C467.758 186.662 436.702 189.452 405.772 195.353C404.669 195.565 403.742 194.94 403.519 194.271C403.323 193.683 403.715 192.813 404.68 192.485C434.872 182.171 468.601 179.101 500.612 179.011C528.037 178.931 555.074 181.323 581.693 187.537C582.419 187.707 582.78 188.2 582.891 188.508C583.071 189.011 582.594 189.966 581.613 189.828V189.833Z" fill="#EF972A"/>
<path d="M586.105 149.874L571.592 150.038L571.602 96.7166L586.046 96.7007L586.105 149.874Z" fill="#F49724"/>
<path d="M586.862 78.455C588.315 81.4827 587.53 84.7172 585.764 86.9443C583.765 89.4629 580.923 90.5288 577.476 90.0887C573.022 89.516 569.883 86.1383 569.92 81.9016C569.963 77.4157 573.256 73.8843 577.98 73.6032C581.618 73.3858 585.154 74.8918 586.862 78.455Z" fill="#F39825"/>
</g>
</svg>
