<svg width="2117" height="2117" viewBox="0 0 2117 2117" fill="none" xmlns="http://www.w3.org/2000/svg">
<path d="M1058.2 2116.3C1642.63 2116.3 2116.4 1642.55 2116.4 1058.15C2116.4 473.75 1642.63 0 1058.2 0C473.772 0 0 473.75 0 1058.15C0 1642.55 473.772 2116.3 1058.2 2116.3Z" fill="url(#paint0_linear_725_1165)"/>
<path d="M391.38 907.586V1233.07C391.38 1235.33 389.529 1237.28 387.166 1237.28H310.494C308.13 1237.28 306.279 1235.43 306.279 1233.07V1110.56C306.279 1108.2 304.429 1106.35 302.065 1106.35H206.79C204.529 1106.35 202.577 1108.2 202.577 1110.56V1233.17C202.577 1235.43 200.727 1237.38 198.363 1237.38H121.691C119.327 1237.38 117.477 1235.53 117.477 1233.17V907.689C117.477 905.428 119.327 903.475 121.691 903.475H198.363C200.624 903.475 202.474 905.325 202.474 907.586V1025.77C202.474 1028.04 204.323 1029.89 206.687 1029.89H301.962C304.326 1029.89 306.177 1028.04 306.177 1025.67V907.483C306.177 905.119 308.027 903.27 310.391 903.27H387.063C389.427 903.27 391.277 905.119 391.277 907.483L391.38 907.586Z" fill="#1D1D1B"/>
<path d="M748.225 1069.35C748.225 1166.16 671.244 1244.99 576.688 1244.99C482.132 1244.99 405.152 1166.26 405.152 1069.35C405.152 972.435 482.132 893.711 576.688 893.711C671.244 893.711 748.225 972.435 748.225 1069.35ZM670.524 1069.35C670.524 1016.42 628.385 973.462 576.688 973.462C524.991 973.462 482.852 1016.52 482.852 1069.35C482.852 1122.17 524.991 1165.24 576.688 1165.24C628.385 1165.24 670.524 1122.17 670.524 1069.35Z" fill="#1D1D1B"/>
<path d="M965.494 1164.11L958.3 1232.96C958.095 1235.02 956.349 1236.56 954.293 1236.56H772.992C770.73 1236.56 768.984 1234.71 768.984 1232.55V906.352C768.984 904.091 770.833 902.344 772.992 902.344H849.972C852.233 902.344 853.982 904.194 853.982 906.352V1155.58C853.982 1157.84 855.831 1159.58 857.989 1159.58H961.487C963.851 1159.58 965.803 1161.64 965.494 1164V1164.11Z" fill="#1D1D1B"/>
<path d="M1264.38 1070.27C1264.38 1102.44 1255.43 1133.69 1238.48 1160.61C1221.93 1186.82 1198.7 1207.78 1171.26 1221.25C1153.58 1229.88 1138.27 1237.38 1088.11 1237.38H988.313C986.052 1237.38 984.203 1235.53 984.203 1233.27V907.276C984.203 904.912 986.052 903.062 988.416 903.062H1085.65C1128.92 903.062 1149.57 909.537 1165.4 916.526C1225.53 943.041 1264.48 1003.37 1264.48 1070.27H1264.38ZM1180.41 1070.07C1179.79 983.123 1090.27 979.834 1069.72 980.245C1067.45 980.245 1065.6 982.198 1065.6 984.459V1155.27C1065.6 1157.63 1067.56 1159.58 1069.92 1159.58H1074.44C1109.9 1159.58 1141.66 1149.61 1157.28 1133.58C1172.39 1118.06 1180.41 1096.07 1180.41 1069.97V1070.07Z" fill="#1D1D1B"/>
<path d="M1369.51 907.483V1232.96C1369.51 1235.33 1367.67 1237.18 1365.3 1237.18H1288.63C1286.27 1237.18 1284.41 1235.33 1284.41 1232.96V907.483C1284.41 905.119 1286.27 903.27 1288.63 903.27H1365.3C1367.67 903.27 1369.51 905.119 1369.51 907.483Z" fill="#1D1D1B"/>
<path d="M1674.25 906.66V1232.45C1674.25 1234.71 1672.4 1236.46 1670.24 1236.46H1602.61C1601.28 1236.46 1600.05 1235.84 1599.33 1234.81L1486.07 1076.13C1483.8 1072.95 1478.67 1074.59 1478.77 1078.5L1480.31 1232.45C1480.31 1234.71 1478.56 1236.56 1476.3 1236.56H1402.92C1400.66 1236.56 1398.91 1234.71 1398.91 1232.55V906.763C1398.91 904.502 1400.76 902.755 1402.92 902.755H1469.93C1471.26 902.755 1472.5 903.474 1473.32 904.502L1586.99 1075.41C1589.25 1078.81 1594.39 1077.16 1594.39 1073.15L1592.85 906.763C1592.85 904.502 1594.6 902.652 1596.86 902.652H1670.24C1672.5 902.652 1674.25 904.502 1674.25 906.66Z" fill="#1D1D1B"/>
<path d="M2039.32 1070.28C2039.32 1087.54 2036.85 1104.7 2032.02 1121.15C2026.37 1140.16 2017.63 1158.04 2006.12 1174.08C1990.5 1195.86 1969.84 1213.85 1946.51 1226.28C1922.05 1239.23 1895.53 1245.81 1867.78 1245.81C1773.23 1245.81 1696.25 1167.09 1696.25 1070.17C1696.25 973.258 1773.23 894.533 1867.78 894.533C1895.53 894.533 1922.05 901.111 1946.51 914.06C1966.96 924.954 1985.36 940.165 2000.16 958.355C2002.22 960.822 2001.7 964.522 1999.13 966.474L1944.04 1007.58C1942.3 1008.92 1939.83 1008.61 1938.39 1006.97C1920.71 986.31 1894.81 974.182 1867.68 974.182C1815.88 974.182 1773.84 1017.24 1773.84 1070.07C1773.84 1122.89 1815.98 1165.96 1867.68 1165.96C1897.28 1165.96 1924.62 1152.08 1942.5 1127.83C1944.45 1125.16 1942.5 1121.35 1939.21 1121.35H1859.05C1856.68 1121.35 1854.83 1119.5 1854.83 1117.14V1053.11C1854.93 1050.75 1856.89 1048.9 1859.15 1048.9H2033.77C2035.93 1048.9 2037.78 1050.54 2037.98 1052.7C2038.39 1057.22 2039.01 1064.83 2039.01 1069.97L2039.32 1070.28Z" fill="#1D1D1B"/>
<path d="M803.516 486.422V556.615C803.516 558.876 801.667 560.726 799.406 560.726H738.871C736.61 560.726 734.758 562.577 734.758 564.838V818.584C734.758 820.845 732.909 822.695 730.648 822.695H652.33C650.069 822.695 648.22 820.845 648.22 818.584V564.838C648.22 562.577 646.369 560.726 644.107 560.726H583.161C580.9 560.726 579.051 558.876 579.051 556.615V486.422C579.051 484.161 580.9 482.311 583.161 482.311H799.406C801.667 482.311 803.516 484.161 803.516 486.422Z" fill="white"/>
<path d="M907.633 487.553V818.996C907.633 821.359 905.681 823.312 903.317 823.312H825.308C822.944 823.312 820.992 821.359 820.992 818.996V487.553C820.992 485.189 822.944 483.236 825.308 483.236H903.317C905.681 483.236 907.633 485.189 907.633 487.553Z" fill="white"/>
<path d="M1304.76 822.592H1229.33C1227.17 822.592 1225.42 820.948 1225.21 818.893L1209.28 646.542C1208.87 642.123 1202.6 641.404 1201.27 645.721L1145.56 819.818C1145.05 821.565 1143.4 822.695 1141.66 822.695H1090.06C1088.31 822.695 1086.67 821.565 1086.15 819.818L1030.45 645.721C1029.11 641.404 1022.84 642.123 1022.43 646.645L1006.5 818.996C1006.3 821.154 1004.55 822.695 1002.39 822.695H926.951C924.484 822.695 922.532 820.537 922.841 818.07L965.493 485.806C965.801 483.75 967.55 482.208 969.605 482.208H1056.86C1058.71 482.208 1060.25 483.339 1060.77 485.086L1112.57 653.531C1113.8 657.436 1119.25 657.436 1120.48 653.531L1170.54 485.086C1171.05 483.339 1172.69 482.105 1174.44 482.105H1262.11C1264.17 482.105 1265.91 483.647 1266.22 485.703L1308.87 817.968C1309.18 820.434 1307.23 822.592 1304.76 822.592Z" fill="white"/>
<path d="M1524.92 749.932L1518.03 819.715C1517.82 821.873 1515.98 823.518 1513.82 823.518H1328.82C1326.25 823.518 1324.09 821.359 1324.09 818.79V487.758C1324.09 485.395 1326.04 483.441 1328.41 483.441H1513.82C1515.98 483.441 1517.82 485.086 1518.03 487.244L1524.92 556.821C1525.23 559.391 1523.17 561.652 1520.5 561.652H1414.94C1412.58 561.652 1410.73 563.605 1410.73 565.866V607.283C1410.73 609.647 1412.68 611.497 1415.05 611.497H1491.92C1494.29 611.497 1496.14 613.346 1496.14 615.71V685.288C1496.14 687.652 1494.19 689.604 1491.82 689.604H1414.94C1412.58 689.604 1410.73 691.454 1410.73 693.818V740.785C1410.73 743.149 1412.68 745.102 1415.05 745.102H1520.81C1523.27 745.102 1525.23 747.26 1525.02 749.727L1524.92 749.932Z" fill="white"/>
<path d="M1900.26 1272.02C1806.73 1646.94 1463.66 1926.38 1056.66 1926.38C649.66 1926.38 309.26 1649.09 214.087 1276.44L189.523 1275.62C284.901 1661.74 637.84 1949.71 1056.66 1949.71C1475.48 1949.71 1834.79 1656.6 1926.37 1265.34L1900.26 1272.02Z" fill="white"/>
<path d="M187.57 866.375L211.826 866.17C222.617 821.566 236.801 778.299 254.376 736.676C257.151 730.098 260.131 723.623 263.112 717.149C269.176 703.685 275.651 690.428 282.331 677.376C285.723 670.798 289.013 664.221 292.507 657.746C299.907 644.283 307.717 631.025 315.837 617.973C319.023 612.835 322.415 607.799 325.704 602.66C480.591 364.638 750.485 206.367 1056.66 206.367C1409.81 206.367 1714.64 416.743 1850.31 717.252C1853.19 723.726 1856.17 730.201 1858.95 736.779C1876.01 777.169 1889.88 819.202 1900.57 862.367L1927.29 873.364C1916.6 826.397 1902.32 780.663 1884.33 736.882H2066.56C2064.5 730.304 2062.34 723.829 2060.18 717.252H1876.21C1870.35 703.788 1864.08 690.531 1857.61 677.478H2045.28L2036.75 657.849H1847.43C1840.24 644.386 1832.84 631.128 1825.03 618.076H2020.72C2017.74 611.499 2014.65 604.921 2011.57 598.446H1813C1654.83 349.427 1374.86 183.141 1056.76 183.141C738.666 183.141 458.698 349.427 300.523 598.446H104.938C101.752 604.921 98.7709 611.499 95.7903 618.076H288.396C280.585 631.128 273.081 644.386 265.99 657.849H78.5231C75.8509 664.324 73.2813 670.901 70.7119 677.478H255.712C249.134 690.531 242.968 703.891 237.11 717.252H56.2198C53.9587 723.726 51.9032 730.304 49.8477 736.882H228.99C211.929 778.607 198.156 821.977 187.57 866.478V866.375Z" fill="white"/>
<path d="M458.184 1307.06H559.933C587.272 1307.06 608.753 1314.88 622.422 1328.24C632.289 1338.51 637.839 1351.15 637.839 1366.47V1367.19C637.839 1398.22 618.723 1414.36 599.915 1422.48C628.281 1431.01 651.201 1447.45 651.201 1480.24V1480.96C651.201 1521.96 616.667 1546.22 564.456 1546.22H458.184V1307.17V1307.06ZM555.514 1413.64C587.992 1413.64 610.501 1398.94 610.501 1370.99V1370.27C610.501 1346.74 591.691 1331.32 557.569 1331.32H484.803V1413.64H555.514ZM565.174 1521.96C601.352 1521.96 623.963 1505.93 623.963 1479.31V1478.59C623.963 1452.59 602.072 1437.59 560.447 1437.59H485.008V1521.96H565.277H565.174Z" fill="white"/>
<path d="M704.849 1307.06H807.627C837.021 1307.06 860.556 1315.9 875.562 1331.01C887.176 1342.62 893.959 1359.38 893.959 1378.18V1378.9C893.959 1418.57 866.62 1441.8 829.106 1448.58L902.593 1546.22H869.499L800.124 1453.31H731.775V1546.22H704.746V1307.17L704.849 1307.06ZM805.263 1429.06C841.133 1429.06 866.724 1410.66 866.724 1379.83V1379.11C866.724 1349.72 844.216 1331.94 805.572 1331.94H731.775V1428.95H805.16L805.263 1429.06Z" fill="white"/>
<path d="M1040.31 1305.42H1065.6L1174.54 1546.22H1145.56L1117.5 1483.01H987.385L959.018 1546.22H931.371L1040.31 1305.42ZM1106.91 1458.76L1052.65 1336.87L997.971 1458.76H1106.91Z" fill="white"/>
<path d="M1201.16 1511.38L1217.92 1491.54C1242.89 1514.05 1266.73 1525.35 1299.93 1525.35C1333.13 1525.35 1353.17 1508.29 1353.17 1484.66V1483.94C1353.17 1461.74 1341.25 1449.1 1290.99 1438.51C1236.01 1426.59 1210.72 1408.81 1210.72 1369.55V1368.83C1210.72 1331.22 1243.82 1303.57 1289.24 1303.57C1324.08 1303.57 1349.06 1313.44 1373.21 1332.96L1357.49 1353.83C1335.29 1335.74 1313.09 1327.83 1288.53 1327.83C1257.49 1327.83 1237.65 1344.89 1237.65 1366.37V1367.08C1237.65 1389.59 1249.98 1402.23 1302.5 1413.54C1355.74 1425.15 1380.41 1444.58 1380.41 1481.16V1481.88C1380.41 1522.89 1346.29 1549.51 1298.8 1549.51C1260.88 1549.51 1229.84 1536.87 1201.16 1511.27V1511.38Z" fill="white"/>
<path d="M1437.96 1307.06H1464.99V1546.11H1437.96V1307.06Z" fill="white"/>
<path d="M1534.88 1307.06H1561.91V1521.24H1696.45V1546.22H1534.88V1307.17V1307.06Z" fill="white"/>
<path d="M839.694 711.598C837.022 718.072 834.452 724.65 831.883 731.125C834.452 724.547 837.022 718.072 839.694 711.598Z" fill="#1D1D1B"/>
<defs>
<linearGradient id="paint0_linear_725_1165" x1="0" y1="1058.15" x2="2116.4" y2="1058.15" gradientUnits="userSpaceOnUse">
<stop stop-color="#BC3709"/>
<stop offset="0.07" stop-color="#C34107"/>
<stop offset="0.29" stop-color="#D65B04"/>
<stop offset="0.52" stop-color="#E46E01"/>
<stop offset="0.75" stop-color="#EC7900"/>
<stop offset="1" stop-color="#EF7D00"/>
</linearGradient>
</defs>
</svg>
